PathFileType	4	(X/Y/Z)	pose_F01_0-96.trc
DataRate	CameraRate	NumFrames	NumMarkers	Units	OrigDataRate	OrigDataStartFrame	OrigNumFrames
30	30	7	21	m	30	36	96
Frame#	Time	CHip			RHip			RKnee			RAnkle			RBigToe			RSmallToe			RHeel			LHip			LKnee			LAnkle			LBigToe			LSmallToe			LHeel			Neck			Nose			RShoulder			RElbow			RWrist			LShoulder			LElbow			LWrist			
		X1	Y1	Z1	X2	Y2	Z2	X3	Y3	Z3	X4	Y4	Z4	X5	Y5	Z5	X6	Y6	Z6	X7	Y7	Z7	X8	Y8	Z8	X9	Y9	Z9	X10	Y10	Z10	X11	Y11	Z11	X12	Y12	Z12	X13	Y13	Z13	X14	Y14	Z14	X15	Y15	Z15	X16	Y16	Z16	X17	Y17	Z17	X18	Y18	Z18	X19	Y19	Z19	X20	Y20	Z20	X21	Y21	Z21	
36	1.2	-0.15618322785376168	1.8900702717198221	-0.6105167673766662	-0.17374585518369276	1.8868963681236388	-0.5442844678895019	-0.19715321324996926	1.7488291642642004	-0.49991483096976774	-0.17702054909390055	1.6191431331377335	-0.5156282513617249	-0.1993358477137136	1.5730172493524646	-0.49454039462459326	-0.19714686073422427	1.5775740428696077	-0.46583686249067324	-0.16661640355340515	1.6120150947991392	-0.5351769773558438	-0.1425492964520498	1.8920269910834018	-0.6752295258170583	-0.14186882045529398	1.7552878112257988	-0.6556344102797433	-0.14920572127017687	1.624142367385187	-0.6307226248094	-0.16992648403222704	1.5778812691927673	-0.6115806127764791	-0.15653490905181242	1.582668095405204	-0.6429692358162072	-0.1466260782406865	1.6156833410101779	-0.6193712375553513	-0.14809013141314126	2.0465666705491885	-0.6302375846577026	-0.17054165930028017	2.1097014599212645	-0.6170083941912236	-0.16660406763394955	2.0426538617250642	-0.5399162671523219	-0.16280313015607864	1.975838712407492	-0.5087837567871117	-0.1777883910800972	1.9130874395117892	-0.4959472360134911	-0.12503312599937944	2.0508469487568837	-0.7223348943049467	-0.11914329756557794	1.9708447211180364	-0.7479245340029069	-1.0021423934924187	1.8440261343450517	0.11661144522090461
37	1.2333333333333334	-0.15618322785376168	1.8900702717198221	-0.6105167673766662	-0.17374585518369276	1.8868963681236388	-0.5442844678895019	-0.19715321324996926	1.7488291642642004	-0.49991483096976774	-0.17702054909390055	1.6191431331377335	-0.5156282513617249	-0.1993358477137136	1.5730172493524646	-0.49454039462459326	-0.19714686073422427	1.5775740428696077	-0.46583686249067324	-0.16661640355340515	1.6120150947991392	-0.5351769773558438	-0.1425492964520498	1.8920269910834018	-0.6752295258170583	-0.14186882045529398	1.7552878112257988	-0.6556344102797433	-0.14920572127017687	1.624142367385187	-0.6307226248094	-0.16992648403222704	1.5778812691927673	-0.6115806127764791	-0.15653490905181242	1.582668095405204	-0.6429692358162072	-0.1466260782406865	1.6156833410101779	-0.6193712375553513	-0.14809013141314126	2.0465666705491885	-0.6302375846577026	-0.17054165930028017	2.1097014599212645	-0.6170083941912236	-0.16660406763394955	2.0426538617250642	-0.5399162671523219	-0.16280313015607864	1.975838712407492	-0.5087837567871117	-0.1777883910800972	1.9130874395117892	-0.4959472360134911	-0.12503312599937944	2.0508469487568837	-0.7223348943049467	-0.11914329756557794	1.9708447211180364	-0.7479245340029069	-0.7144025929917369	1.8624500464295424	-0.172881920390768
38	1.2666666666666666	-0.15618322785376168	1.8900702717198221	-0.6105167673766662	-0.17374585518369276	1.8868963681236388	-0.5442844678895019	-0.19715321324996926	1.7488291642642004	-0.49991483096976774	-0.17702054909390055	1.6191431331377335	-0.5156282513617249	-0.1993358477137136	1.5730172493524646	-0.49454039462459326	-0.19714686073422427	1.5775740428696077	-0.46583686249067324	-0.16661640355340515	1.6120150947991392	-0.5351769773558438	-0.1425492964520498	1.8920269910834018	-0.6752295258170583	-0.14186882045529398	1.7552878112257988	-0.6556344102797433	-0.14920572127017687	1.624142367385187	-0.6307226248094	-0.16992648403222704	1.5778812691927673	-0.6115806127764791	-0.15653490905181242	1.582668095405204	-0.6429692358162072	-0.1466260782406865	1.6156833410101779	-0.6193712375553513	-0.14809013141314126	2.0465666705491885	-0.6302375846577026	-0.17054165930028017	2.1097014599212645	-0.6170083941912236	-0.16660406763394955	2.0426538617250642	-0.5399162671523219	-0.16280313015607864	1.975838712407492	-0.5087837567871117	-0.1777883910800972	1.9130874395117892	-0.4959472360134911	-0.12503312599937944	2.0508469487568837	-0.7223348943049467	-0.11914329756557794	1.9708447211180364	-0.7479245340029069	-0.4266627924910551	1.8808739585140328	-0.4623752860024406
39	1.3	-0.15618322785376168	1.8900702717198221	-0.6105167673766662	-0.17374585518369276	1.8868963681236388	-0.5442844678895019	-0.19715321324996926	1.7488291642642004	-0.49991483096976774	-0.17702054909390055	1.6191431331377335	-0.5156282513617249	-0.1993358477137136	1.5730172493524646	-0.49454039462459326	-0.19714686073422427	1.5775740428696077	-0.46583686249067324	-0.16661640355340515	1.6120150947991392	-0.5351769773558438	-0.1425492964520498	1.8920269910834018	-0.6752295258170583	-0.14186882045529398	1.7552878112257988	-0.6556344102797433	-0.14920572127017687	1.624142367385187	-0.6307226248094	-0.16992648403222704	1.5778812691927673	-0.6115806127764791	-0.15653490905181242	1.582668095405204	-0.6429692358162072	-0.1466260782406865	1.6156833410101779	-0.6193712375553513	-0.14809013141314126	2.0465666705491885	-0.6302375846577026	-0.17054165930028017	2.1097014599212645	-0.6170083941912236	-0.16660406763394955	2.0426538617250642	-0.5399162671523219	-0.16280313015607864	1.975838712407492	-0.5087837567871117	-0.1777883910800972	1.9130874395117892	-0.4959472360134911	-0.12503312599937944	2.0508469487568837	-0.7223348943049467	-0.11914329756557794	1.9708447211180364	-0.7479245340029069	-0.13892299199037317	1.8992978705985235	-0.7518686516141133
40	1.3333333333333333	-0.15480671539652627	1.891978793266325	-0.6074317083395783	-0.17033790852535163	1.8889980246948634	-0.5434345107467119	-0.20305080430876513	1.7513710344452331	-0.4936670411119698	-0.1783091822667062	1.628104333761333	-0.5158446911856766	-0.20031921605711012	1.580668767443486	-0.49517809330151824	-0.19793199606414194	1.5841208297310954	-0.4664828067327934	-0.16809919761044254	1.6226223271086229	-0.5400222903352553	-0.14340360374229458	1.8953133008690102	-0.6701011071746753	-0.13718776201599908	1.7586175679244678	-0.6485937411905887	-0.14884137992827576	1.6285560965995731	-0.6272229752992171	-0.16732155276685495	1.5818827322729871	-0.6101104070819088	-0.15356828194309216	1.5848153132073566	-0.6414845014548788	-0.1464114366097989	1.6238042153851753	-0.6162257580991088	-0.14595982100543547	2.047845136160785	-0.6322336364821722	-0.1705027746993441	2.1109134760113633	-0.617461754054133	-0.16450627321570796	2.0451136834897716	-0.5424898677738319	-0.16280313015607864	1.975838712407492	-0.5087837567871117	-0.1777883910800972	1.9130874395117892	-0.4959472360134911	-0.12490936706112016	2.052205534131233	-0.722192279728933	-0.1205089639826008	1.9744730263885328	-0.742878016077683	-0.1454787250495067	1.9051087750222502	-0.7456081100725666
41	1.3666666666666667	-0.1543481098831031	1.8954144252414866	-0.6079104289525534	-0.16985271725457074	1.892400237973295	-0.5439362498273183	-0.20558436788113071	1.7539450133309986	-0.4953358876398961	-0.17789261494050432	1.6312878865019498	-0.5169104086980915	-0.19794890879614443	1.5839420548288397	-0.49837829294719715	-0.19677197697034127	1.5861185227286176	-0.4638228081680462	-0.16788817180715193	1.6268691622003637	-0.5408483525987735	-0.143748279861993	1.8987091115521542	-0.6735463685817207	-0.1397328662020439	1.760660496255306	-0.6501919847719035	-0.14733603144310856	1.6299680677583657	-0.6250544195446469	-0.16956589438580347	1.5820742266234837	-0.6077861967840225	-0.155741225303628	1.5871996840738058	-0.639636445753318	-0.1461695325095625	1.6258623079676375	-0.6167008112083234	-0.14518368341718216	2.049056191685268	-0.6296734967226482	-0.16967954372374155	2.1107394019041705	-0.6145486354212937	-0.1635671434461252	2.04505391816596	-0.539491856740098	-0.16280313015607864	1.975838712407492	-0.5087837567871117	-0.1777883910800972	1.9130874395117892	-0.4959472360134911	-0.12420997271473001	2.0544335659253967	-0.7194254721438019	-0.12489468075081266	1.975638572588748	-0.7381976280243979	-0.15666320315457677	1.9073259853739557	-0.7343017596570648
42	1.4	-0.15797644945079423	1.8908773378678922	-0.608231267712322	-0.17319510717945336	1.887709692500807	-0.5442278625021529	-0.20189167937071717	1.747877948576067	-0.49865914786752064	-0.1784986065178773	1.6237225918485394	-0.5149358181265463	-0.20112184517184054	1.579002533804852	-0.49402228885823546	-0.19873311908326988	1.5828248812687462	-0.46546133679817775	-0.16764110029406046	1.6168719425995544	-0.535360329214218	-0.14462554420462118	1.8930536399374174	-0.6729309547201547	-0.14358173699887905	1.7535853364770044	-0.6536875756969935	-0.15073132928775265	1.6200608830048406	-0.6288372118251696	-0.17089274474429444	1.5762412105191346	-0.6063062193127269	-0.15830422007340816	1.5799689896881837	-0.6410456137028344	-0.1459335083300707	1.6107727461818606	-0.6199671808670986	-0.1472121509270897	2.0477159633449347	-0.6270915184251177	-0.16973422935569885	2.109552347137048	-0.6139318558067524	-0.1636984166247691	2.0439439628413543	-0.5396133358931826	-0.16516199642172003	1.9700312619755511	-0.506608995256467	-0.18212517658213334	1.905663415734948	-0.49119743629250906	-0.12633912272800477	2.0532033826490097	-0.7168050766905636	-0.12994150866474274	1.9766272542405767	-0.736476678539066	-0.15719819084290676	1.9098188617563876	-0.7375054529062649
